<?xml version="1.0" standalone="no"?>
<!DOCTYPE svg PUBLIC "-//W3C//DTD SVG 20010904//EN"
 "http://www.w3.org/TR/2001/REC-SVG-20010904/DTD/svg10.dtd">
<svg version="1.0" xmlns="http://www.w3.org/2000/svg"
 width="500.000000pt" height="500.000000pt" viewBox="0 0 500.000000 500.000000"
 preserveAspectRatio="xMidYMid meet">

<g transform="translate(0.000000,500.000000) scale(0.100000,-0.100000)"
fill="#000000" stroke="none">
<path d="M2595 3526 c-218 -69 -425 -291 -599 -642 -202 -409 -264 -749 -172
-939 81 -164 287 -254 490 -212 95 20 168 61 243 137 58 58 128 184 138 248
14 80 24 100 55 104 36 5 36 6 14 -137 -21 -141 -30 -445 -15 -517 29 -138
129 -146 230 -19 54 69 64 106 57 199 -3 43 -9 154 -12 249 -5 147 -3 190 15
307 26 161 20 205 -32 236 -45 28 -154 26 -303 -4 -66 -13 -170 -32 -233 -41
-63 -9 -131 -23 -150 -31 -78 -32 -151 -137 -151 -216 0 -54 31 -72 107 -63
71 8 107 -4 128 -44 23 -45 20 -48 -37 -43 -218 20 -318 192 -263 454 23 108
88 294 134 384 93 183 210 280 315 260 86 -16 153 -124 143 -230 -5 -51 -13
-70 -61 -140 -30 -45 -60 -93 -67 -108 -24 -56 17 -112 75 -101 41 8 145 111
191 189 88 149 125 268 125 397 0 155 -58 274 -154 318 -48 22 -150 24 -211 5z"/>
<path d="M755 3456 c-40 -18 -77 -60 -109 -120 -42 -79 -33 -160 24 -211 53
-47 63 -148 34 -344 -21 -145 -38 -209 -84 -306 -38 -81 -39 -88 -38 -182 2
-91 -1 -105 -36 -198 -21 -55 -50 -122 -64 -150 -59 -118 -79 -227 -46 -259
20 -21 28 -20 164 9 92 19 167 27 370 35 554 23 570 25 627 54 77 38 133 130
133 215 -1 43 -17 66 -54 81 -40 15 -286 12 -476 -5 -156 -15 -430 -50 -457
-60 -18 -6 -16 14 8 107 20 80 62 177 82 190 16 10 148 27 289 37 147 11 196
28 247 86 69 79 93 183 51 225 -33 33 -166 28 -361 -15 -88 -19 -164 -35 -168
-35 -5 0 -3 28 5 63 7 34 19 115 26 180 7 64 16 117 20 117 4 0 49 -18 99 -41
255 -115 440 -135 585 -64 87 43 158 149 152 227 -4 55 -23 66 -85 48 -125
-36 -250 -17 -400 61 -114 59 -123 65 -248 155 -55 39 -115 79 -133 88 -46 24
-120 29 -157 12z"/>
<path d="M4255 3463 c-65 -9 -374 -75 -586 -123 -166 -38 -240 -60 -284 -84
-140 -75 -136 -208 13 -388 130 -158 294 -363 435 -543 l156 -200 -242 -7
c-133 -3 -243 -5 -244 -4 -1 1 3 18 9 38 16 52 2 106 -37 145 -30 30 -39 33
-89 33 -73 0 -106 -18 -144 -77 -55 -85 -125 -262 -130 -326 -6 -74 9 -102 62
-122 56 -21 132 -22 412 -6 273 17 483 7 654 -30 125 -26 169 -20 220 31 51
51 65 101 45 166 -19 63 9 29 -603 729 -172 196 -267 312 -259 316 15 8 278
74 370 93 37 7 67 10 67 5 0 -5 -11 -34 -25 -65 -39 -88 -34 -144 16 -169 65
-34 101 -14 160 88 23 40 72 113 109 162 120 161 132 193 100 260 -30 62 -99
91 -185 78z"/>
</g>
</svg>
